<svg width="214" height="203" viewBox="0 0 214 203" fill="none" xmlns="http://www.w3.org/2000/svg">
<g opacity="0.8">
<path opacity="0.5" d="M80.3955 29.6045C77.721 25.9614 72.1959 29.9017 74.6943 33.6658C75.3437 34.6453 76.0591 35.6029 76.7415 36.5164C84.9631 47.6107 89.2225 61.0933 92.8876 74.4219C93.7901 77.7238 94.6597 81.1797 93.6361 84.4156C95.1109 75.7537 94.1533 66.8056 91.9301 58.3198C89.7068 49.834 86.2619 41.7003 82.6959 33.6768C82.074 32.2425 81.3029 30.8775 80.3955 29.6045Z" fill="white"/>
<path opacity="0.8" d="M27.0373 52.9487C21.5342 52.7836 20.7858 61.1924 26.3109 61.6326C27.7637 61.7537 29.2166 61.7867 30.6144 61.8197C47.597 62.282 63.6331 68.4235 79.0969 75.0272C82.883 76.6452 86.8012 78.4722 89.0795 81.9502C82.1236 73.8826 72.9554 67.9722 63.2149 63.6358C53.4743 59.2993 43.0844 56.4377 32.7055 53.7302C30.8497 53.2666 28.9493 53.0046 27.0373 52.9487Z" fill="white"/>
<path opacity="0.2" d="M28.5672 73.6294C25.0672 73.7615 25.8596 78.7363 29.3816 78.7693C30.3062 78.7693 31.2307 78.7694 32.1112 78.7033C42.8202 78.2631 53.7934 81.2237 64.4365 84.4706C67.056 85.274 69.8075 86.1766 71.7116 88.1357C66.0579 83.7731 59.653 80.4829 52.8139 78.4282C46.0793 76.4244 39.208 74.9125 32.2542 73.9046C31.0373 73.6919 29.8023 73.5997 28.5672 73.6294Z" fill="white"/>
<path opacity="0.5" d="M100.262 166.17C101.252 169.538 105.875 167.535 105.028 164.112C104.807 163.209 104.543 162.329 104.29 161.492C101.208 151.212 101.351 139.854 101.858 128.738C101.99 126.008 102.177 123.114 103.597 120.78C100.776 127.339 99.1828 134.36 98.8971 141.494C98.6223 148.517 98.8615 155.55 99.6125 162.538C99.7072 163.767 99.9248 164.984 100.262 166.17Z" fill="white"/>
<path opacity="0.2" d="M34.9508 24.9378C32.8486 24.5636 32.6835 27.6344 34.7857 28.1076C35.336 28.2287 35.8863 28.3168 36.4256 28.4048C42.8753 29.5054 49.0498 32.6752 54.9931 35.9661C56.5249 36.6636 57.8598 37.73 58.8784 39.0699C56.0512 35.7511 52.6421 32.9761 48.8187 30.8812C45.0526 28.8284 41.1424 27.0517 37.119 25.5652C36.4189 25.2847 35.6926 25.0745 34.9508 24.9378Z" fill="white"/>
<path opacity="0.8" d="M2.39433 106.34C-2.9547 109.092 1.56886 116.653 7.06097 114.143C8.50279 113.494 9.90057 112.757 11.2433 112.063C27.5986 103.577 46.5844 100.452 65.273 98.0523C69.8516 97.4579 74.7384 96.9517 78.9868 98.7567C67.4192 95.4548 55.1143 95.2347 43.2165 96.6105C31.3188 97.9862 19.7512 101.013 8.29366 104.128C6.25566 104.658 4.27853 105.399 2.39433 106.34Z" fill="white"/>
<path opacity="0.5" d="M17.682 135.771C13.8298 139.348 19.8832 143.585 23.8675 140.173C24.9681 139.271 25.9256 138.324 26.8942 137.422C38.6048 126.415 54.0906 118.59 69.5103 111.381C73.2965 109.609 88.8703 107.804 93.0307 107.903C82.1675 108.871 60.0119 112.305 50.1063 116.708C40.4356 121.304 31.0881 126.551 22.1285 132.414C20.5417 133.387 19.0527 134.511 17.682 135.771Z" fill="white"/>
<path opacity="0.8" d="M45.1095 182.734C44.0089 187.874 51.3281 187.94 52.6928 182.811C53.045 181.48 53.3312 180.126 53.6064 178.838C56.9963 163.121 65.284 147.878 73.8688 133.173C75.982 129.574 87.7697 119.228 91.2477 116.95C82.8609 123.917 66.5386 139.326 60.9695 148.615C55.6288 157.9 50.9185 167.534 46.8705 177.451C46.1165 179.152 45.5268 180.921 45.1095 182.734Z" fill="white"/>
<path opacity="0.8" d="M100.317 2.41907C97.6974 -2.91896 90.2131 1.47254 92.6125 6.94264C93.2398 8.38446 93.9333 9.78225 94.6047 11.114C102.661 27.4363 105.435 46.334 107.515 64.8465C108.021 69.3921 108.45 74.2458 106.601 78.4282C109.98 67.0147 110.432 54.8198 109.265 43.0101C108.098 31.2004 105.336 19.6879 102.43 8.2854C101.926 6.26354 101.218 4.29804 100.317 2.41907Z" fill="white"/>
<path opacity="0.8" d="M58.6032 11.5102C58.7405 11.5906 58.8955 11.636 59.0544 11.6423C59.3406 11.6423 59.5497 11.3451 59.6708 11.081C60.3202 9.66116 59.946 7.77909 60.9586 6.67847C61.9843 7.90556 62.8089 9.28748 63.4019 10.7728L67.2431 9.58412C67.4224 10.3293 67.4504 11.1028 67.3257 11.8589C67.2009 12.6151 66.9258 13.3386 66.5167 13.9866C67.1906 14.2803 67.803 14.6986 68.3218 15.2193C68.5817 15.4791 68.7637 15.8065 68.8473 16.1644C68.931 16.5222 68.9129 16.8964 68.795 17.2445C67.9098 17.4621 66.9984 17.5548 66.0875 17.5196C66.2309 19.2091 66.1308 20.9105 65.7903 22.5715C65.7812 22.6947 65.7474 22.8148 65.6906 22.9245C65.6339 23.0342 65.5554 23.1313 65.4601 23.2098C65.1849 23.3859 64.8107 23.2098 64.5246 23.0558C63.2024 22.2487 62.1136 21.1106 61.3658 19.7539L59.9019 23.0888C59.8012 23.4433 59.5741 23.7487 59.2636 23.9473C59.0456 24.0209 58.8093 24.0197 58.592 23.944C58.3747 23.8682 58.1889 23.7222 58.0639 23.529C57.8287 23.137 57.6857 22.6967 57.6457 22.2413L57.1064 18.9394C57.1001 18.7702 57.0382 18.6077 56.9303 18.4772C56.7696 18.3554 56.5699 18.2967 56.3689 18.3121C55.0041 18.3121 53.6504 18.257 52.2967 18.3121C52.0655 17.5967 52.7809 16.9253 53.4743 16.6171C54.1677 16.3089 54.9931 16.0888 55.3453 15.4174C56.0497 14.0416 54.2447 12.1156 54.9931 10.9489C55.9397 9.5511 57.4145 10.9159 58.6032 11.5102Z" fill="white"/>
<path opacity="0.5" d="M132.774 29.6045C135.449 25.9614 140.963 29.9017 138.476 33.6658C137.815 34.6453 137.111 35.6029 136.428 36.5164C128.207 47.6107 123.947 61.0933 120.271 74.4219C119.369 77.7238 118.499 81.1797 119.534 84.4156C118.059 75.7537 119.016 66.8056 121.24 58.3198C123.638 49.8679 126.722 41.6261 130.463 33.6768C131.093 32.2443 131.867 30.8798 132.774 29.6045Z" fill="white"/>
<path opacity="0.8" d="M186.122 52.9487C191.625 52.7836 192.373 61.1924 186.848 61.6326C185.406 61.7537 183.942 61.7867 182.555 61.8197C165.562 62.282 149.537 68.4235 134.073 75.0272C130.287 76.6452 126.303 78.4722 124.09 81.9502C131.046 73.8826 140.203 67.9722 149.955 63.6358C159.707 59.2993 170.074 56.4377 180.464 53.7302C182.317 53.2674 184.213 53.0054 186.122 52.9487Z" fill="white"/>
<path opacity="0.5" d="M184.592 73.6294C188.103 73.7615 187.31 78.7363 183.788 78.7693C182.864 78.7693 181.939 78.7693 181.059 78.7033C170.339 78.2631 159.376 81.2237 148.733 84.4706C146.114 85.274 143.351 86.1765 141.458 88.1357C147.112 83.7731 153.517 80.4829 160.356 78.4281C167.091 76.4244 173.962 74.9125 180.916 73.9046C182.129 73.6921 183.36 73.5999 184.592 73.6294Z" fill="white"/>
<path opacity="0.2" d="M178.219 24.9378C180.321 24.5636 180.486 27.6344 178.384 28.1076C177.834 28.2287 177.284 28.3168 176.744 28.4048C170.295 29.5054 164.109 32.6752 158.166 35.9661C156.637 36.664 155.306 37.7305 154.292 39.0699C157.115 35.7513 160.52 32.9762 164.34 30.8812C168.111 28.8303 172.025 27.0537 176.051 25.5652C176.751 25.2847 177.477 25.0745 178.219 24.9378Z" fill="white"/>
<path opacity="0.2" d="M123.309 172.554C122.836 174.645 119.941 173.599 120.326 171.453C120.425 170.903 120.557 170.352 120.678 169.824C122.142 163.44 121.614 156.529 120.866 149.771C120.808 148.089 120.335 146.448 119.49 144.994C121.47 148.879 122.719 153.095 123.177 157.431C123.618 161.701 123.747 165.998 123.562 170.286C123.556 171.049 123.472 171.809 123.309 172.554Z" fill="white"/>
<path opacity="0.5" d="M176.865 158.675C178.516 161.47 174.466 161.272 172.683 158.488C172.221 157.75 171.791 157.013 171.384 156.286C166.365 147.746 158.738 139.315 151.045 131.159C149.226 129.042 147.1 127.209 144.738 125.722C150.742 129.809 156.279 134.545 161.247 139.843C166.178 145.005 170.537 150.387 174.807 155.747C175.557 156.677 176.244 157.655 176.865 158.675Z" fill="white"/>
<path opacity="0.2" d="M30.3392 158.675C28.6883 161.47 32.7386 161.272 34.5106 158.488C34.9838 157.75 35.4131 157.013 35.8203 156.286C40.8392 147.746 48.4665 139.315 56.1598 131.159C57.9761 129.039 60.1023 127.206 62.4664 125.722C56.4603 129.807 50.9236 134.543 45.9571 139.843C41.0263 145.005 36.6568 150.387 32.3974 155.747C31.6476 156.677 30.9601 157.655 30.3392 158.675Z" fill="white"/>
<path opacity="0.2" d="M83.9286 172.554C84.4019 174.645 87.2965 173.599 86.9112 171.453C86.8122 170.903 86.6801 170.352 86.559 169.824C85.0952 163.44 85.6235 156.529 86.372 149.771C86.4297 148.089 86.9023 146.448 87.7477 144.994C85.768 148.879 84.5182 153.095 84.0607 157.431C83.6194 161.701 83.4906 165.998 83.6754 170.286C83.681 171.049 83.7659 171.809 83.9286 172.554Z" fill="white"/>
<path opacity="0.2" d="M161.335 45.8937C163.438 45.5305 163.603 48.6012 161.501 49.0635C160.95 49.1846 160.4 49.2836 159.861 49.3717C153.411 50.4723 147.236 53.6311 141.282 56.922C139.755 57.6269 138.424 58.6965 137.408 60.0367C140.229 56.7117 143.639 53.9357 147.468 51.8481C151.231 49.7907 155.142 48.0139 159.167 46.5321C159.867 46.248 160.593 46.0341 161.335 45.8937Z" fill="white"/>
<path opacity="0.2" d="M141.645 4.74138C143.461 3.64076 144.76 6.40332 142.977 7.62501C142.515 7.93319 142.031 8.23036 141.579 8.51653C135.999 11.9505 131.454 17.1894 127.172 22.4614C126.009 23.6786 125.172 25.1704 124.74 26.7979C126.113 22.6597 128.236 18.8095 131.002 15.4395C133.725 12.1237 136.69 9.01504 139.873 6.13917C140.417 5.61638 141.01 5.14821 141.645 4.74138Z" fill="white"/>
<path opacity="0.8" d="M210.775 106.34C216.124 109.092 211.601 116.653 206.109 114.143C204.667 113.494 203.258 112.757 201.927 112.063C185.571 103.577 166.574 100.452 147.897 98.0523C143.318 97.4579 138.431 96.9517 134.183 98.7567C145.74 95.4548 158.056 95.2347 169.953 96.6105C181.851 97.9862 193.419 101.013 204.876 104.128C206.914 104.66 208.89 105.401 210.775 106.34Z" fill="white"/>
<path opacity="0.5" d="M195.488 135.771C199.329 139.348 193.287 143.585 189.291 140.173C188.191 139.271 187.233 138.324 186.276 137.422C174.554 126.415 159.068 118.59 143.659 111.381C139.873 109.609 124.288 107.804 120.139 107.903C131.002 108.871 153.158 112.305 163.063 116.708C172.738 121.304 182.089 126.551 191.052 132.414C192.635 133.388 194.121 134.512 195.488 135.771Z" fill="white"/>
<path opacity="0.8" d="M150.153 188.601C150.626 193.829 143.318 193.003 142.614 187.731C142.427 186.355 142.317 184.969 142.207 183.659C140.809 167.645 134.502 151.488 127.821 135.826C126.182 131.985 115.781 120.252 112.611 117.544C120.062 125.513 134.326 142.859 138.685 152.764C142.823 162.641 146.286 172.786 149.052 183.131C149.589 184.916 149.958 186.747 150.153 188.601Z" fill="white"/>
<path opacity="0.8" d="M154.556 11.5102C154.418 11.5906 154.263 11.636 154.104 11.6423C153.807 11.6423 153.609 11.3451 153.488 11.081C152.828 9.66116 153.213 7.77909 152.2 6.67847C151.175 7.90556 150.35 9.28748 149.757 10.7728L145.916 9.58412C145.734 10.329 145.705 11.103 145.829 11.8595C145.954 12.6161 146.231 13.3396 146.642 13.9866C145.965 14.2803 145.349 14.6984 144.826 15.2193C144.57 15.4817 144.392 15.8096 144.31 16.1669C144.229 16.5242 144.247 16.897 144.364 17.2445C145.249 17.4627 146.16 17.5553 147.071 17.5196C146.93 19.2087 147.026 20.9092 147.358 22.5715C147.349 22.7236 147.388 22.8747 147.471 23.0026C147.554 23.1305 147.676 23.2287 147.818 23.2827C147.96 23.3368 148.116 23.3439 148.263 23.3031C148.41 23.2622 148.54 23.1756 148.634 23.0558C149.956 22.2487 151.045 21.1106 151.793 19.7539L153.224 23.1658C153.321 23.5223 153.549 23.8289 153.862 24.0243C154.078 24.0992 154.314 24.0986 154.53 24.0226C154.745 23.9467 154.929 23.7998 155.051 23.6061C155.294 23.2171 155.442 22.7756 155.48 22.3183L156.008 19.0165C156.024 18.8473 156.089 18.6864 156.196 18.5542C156.356 18.4325 156.556 18.3738 156.757 18.3891C158.111 18.3891 159.475 18.3341 160.829 18.3891C161.06 17.6737 160.334 17.0023 159.641 16.6942C158.947 16.386 158.133 16.1659 157.78 15.4945C157.076 14.1187 158.881 12.1926 158.122 11.0259C157.23 9.5511 155.755 10.9159 154.556 11.5102Z" fill="white"/>
<path opacity="0.2" d="M166.156 169.758C166.019 169.838 165.864 169.884 165.705 169.89C165.408 169.89 165.21 169.593 165.089 169.329C164.439 167.909 164.813 166.027 163.801 164.871C162.775 166.098 161.95 167.48 161.357 168.966L157.516 167.777C157.337 168.522 157.309 169.295 157.434 170.052C157.558 170.808 157.834 171.531 158.243 172.179C157.569 172.473 156.956 172.891 156.438 173.412C156.178 173.674 155.996 174.004 155.912 174.363C155.829 174.723 155.847 175.098 155.964 175.448C156.851 175.657 157.762 175.746 158.672 175.712C158.528 177.402 158.629 179.103 158.969 180.764C158.978 180.887 159.012 181.008 159.069 181.117C159.126 181.227 159.204 181.324 159.299 181.403C159.574 181.59 159.949 181.403 160.235 181.249C161.564 180.426 162.654 179.268 163.394 177.892L164.824 181.315C164.928 181.665 165.155 181.965 165.463 182.162C165.68 182.237 165.915 182.237 166.132 182.163C166.349 182.09 166.536 181.946 166.662 181.755C166.896 181.358 167.039 180.915 167.081 180.456L167.62 177.154C167.626 176.985 167.688 176.822 167.796 176.692C167.957 176.57 168.156 176.511 168.357 176.527C169.711 176.527 171.076 176.527 172.43 176.527C172.661 175.8 171.945 175.129 171.252 174.832C170.559 174.535 169.733 174.293 169.381 173.621C168.677 172.245 170.482 170.319 169.733 169.153C168.864 167.799 167.345 169.164 166.156 169.758Z" fill="white"/>
<path opacity="0.8" d="M198.724 63.6798C198.583 63.7615 198.424 63.8069 198.261 63.8119C197.975 63.8119 197.777 63.5147 197.656 63.2506C196.996 61.8308 197.37 59.9487 196.368 58.793C195.345 60.0217 194.52 61.4033 193.925 62.8874L190.084 61.6987C189.902 62.4436 189.873 63.2175 189.997 63.9741C190.122 64.7306 190.399 65.4541 190.81 66.1012C190.134 66.396 189.518 66.814 188.994 67.3339C188.739 67.5988 188.56 67.928 188.476 68.2866C188.393 68.6451 188.408 69.0196 188.521 69.37C189.41 69.584 190.325 69.6729 191.239 69.6342C191.098 71.3232 191.194 73.0238 191.525 74.686C191.549 74.9336 191.667 75.1626 191.856 75.3244C192.142 75.5115 192.505 75.3244 192.791 75.1703C194.118 74.3651 195.211 73.2268 195.961 71.8685L197.381 75.2804C197.485 75.6304 197.711 75.9313 198.019 76.1279C198.236 76.2065 198.472 76.2091 198.691 76.135C198.909 76.061 199.095 75.9148 199.219 75.7206C199.461 75.3268 199.608 74.8822 199.648 74.4219L200.176 71.1751C200.193 71.0081 200.254 70.8485 200.353 70.7128C200.517 70.5912 200.721 70.5326 200.925 70.5477C202.275 70.5477 203.629 70.5477 204.986 70.5477C205.228 69.8213 204.502 69.1499 203.809 68.8527C203.115 68.5556 202.29 68.3134 201.949 67.642C201.244 66.2663 203.049 64.3402 202.29 63.1735C201.387 61.7207 199.901 63.0855 198.724 63.6798Z" fill="white"/>
<path opacity="0.8" d="M68.5309 185.629C68.3411 185.744 68.1252 185.808 67.9035 185.816C67.4963 185.816 67.2101 185.409 67.045 185.035C66.1315 183.054 66.6597 180.489 65.2509 178.816C63.8274 180.532 62.68 182.459 61.8501 184.528L56.49 182.866C56.2418 183.906 56.2035 184.985 56.3774 186.039C56.5512 187.094 56.9338 188.103 57.5026 189.008C56.5617 189.416 55.7065 189.999 54.9822 190.725C54.6246 191.091 54.3739 191.549 54.2575 192.047C54.1411 192.546 54.1634 193.067 54.3218 193.553C55.5604 193.853 56.8346 193.979 58.1079 193.928C57.9067 196.279 58.0439 198.648 58.5151 200.961C58.5019 201.171 58.5559 201.379 58.6693 201.557C58.7827 201.734 58.9496 201.87 59.1459 201.947C59.3421 202.023 59.5574 202.034 59.7606 201.98C59.9638 201.925 60.1444 201.807 60.2762 201.643C62.1288 200.502 63.6475 198.892 64.6787 196.976L66.6708 201.731C66.8161 202.221 67.1324 202.643 67.5623 202.92C67.865 203.026 68.1944 203.027 68.4977 202.923C68.8011 202.819 69.0608 202.617 69.2352 202.347C69.5611 201.797 69.7604 201.18 69.8186 200.542L70.567 196.008C70.578 195.775 70.6628 195.551 70.8091 195.37C71.0362 195.198 71.3181 195.116 71.6016 195.138C73.4946 195.138 75.3877 195.072 77.2698 195.083C77.6 194.082 76.5874 193.146 75.6298 192.728C74.6723 192.31 73.5166 191.98 73.0324 191.044C72.0418 189.129 74.5952 186.465 73.5056 184.826C72.2399 182.899 70.1818 184.804 68.5309 185.629Z" fill="white"/>
<path opacity="0.8" d="M14.3691 66.8386C14.1775 66.9583 13.9567 67.023 13.7308 67.0257C13.3345 67.0257 13.0484 66.6185 12.8723 66.2553C11.9698 64.2741 12.4871 61.7097 11.0893 60.0367C9.66003 61.7505 8.50866 63.6781 7.67732 65.749L2.3283 64.087C2.07446 65.1261 2.03331 66.2058 2.20731 67.2612C2.38132 68.3166 2.76688 69.3259 3.34086 70.2285C2.40111 70.634 1.54611 71.2127 0.82045 71.9345C0.460852 72.3019 0.209112 72.7611 0.0926573 73.2618C-0.0237973 73.7626 -0.000532141 74.2857 0.160036 74.7741C1.39847 75.0747 2.67286 75.2007 3.94619 75.1483C3.74752 77.4996 3.88095 79.8672 4.34246 82.1813C4.35331 82.3539 4.39998 82.5223 4.47957 82.6758C4.55916 82.8293 4.66991 82.9645 4.80471 83.0728C5.20093 83.3259 5.70722 83.0728 6.11445 82.8637C7.96756 81.7185 9.48607 80.1051 10.5169 78.186L12.5091 82.9407C12.6544 83.4307 12.9657 83.8549 13.3896 84.1404C13.6937 84.2413 14.0227 84.2388 14.3253 84.1333C14.6278 84.0278 14.887 83.8252 15.0625 83.5571C15.3951 83.0083 15.5983 82.391 15.6568 81.7521L16.3942 77.2285C16.4133 76.9953 16.5015 76.773 16.6474 76.5901C16.8716 76.4132 17.1557 76.3303 17.4399 76.359C19.3219 76.304 21.215 76.293 23.1081 76.304C23.4273 75.3024 22.4257 74.3669 21.4572 73.9376C20.4886 73.5084 19.344 73.2002 18.8597 72.2647C17.8801 70.3496 20.4226 67.6861 19.344 66.0351C18.0783 64.1201 16.0201 66.0131 14.3691 66.8386Z" fill="white"/>
<path opacity="0.2" d="M178.769 140.404C178.669 140.464 178.556 140.498 178.439 140.503C178.219 140.503 178.076 140.283 177.977 140.085C177.493 138.985 177.779 137.675 177.03 136.783C176.273 137.695 175.664 138.72 175.225 139.821L172.375 138.94C172.233 139.498 172.208 140.079 172.301 140.648C172.394 141.216 172.602 141.758 172.914 142.242C172.413 142.46 171.957 142.77 171.571 143.156C171.385 143.351 171.254 143.594 171.194 143.857C171.134 144.121 171.147 144.396 171.23 144.653C171.885 144.816 172.559 144.886 173.233 144.862C173.125 146.11 173.199 147.367 173.453 148.593C173.46 148.684 173.485 148.773 173.526 148.854C173.568 148.935 173.626 149.008 173.695 149.066C173.81 149.112 173.935 149.127 174.057 149.107C174.18 149.088 174.294 149.036 174.389 148.956C175.371 148.346 176.176 147.488 176.722 146.469L177.823 149C177.898 149.26 178.067 149.484 178.296 149.628C178.456 149.687 178.632 149.69 178.794 149.636C178.956 149.582 179.095 149.474 179.188 149.33C179.363 149.039 179.468 148.712 179.496 148.373L179.892 145.962C179.9 145.838 179.947 145.719 180.024 145.621C180.147 145.537 180.294 145.495 180.442 145.5H183.458C183.634 144.972 183.095 144.477 182.588 144.245C182.082 144.014 181.488 143.86 181.202 143.354C180.684 142.341 182.038 140.933 181.455 140.052C180.872 139.172 179.606 139.964 178.769 140.404Z" fill="white"/>
<path opacity="0.2" d="M105.149 182.888C105.042 182.943 104.926 182.977 104.807 182.987C104.703 182.961 104.607 182.909 104.528 182.836C104.449 182.763 104.39 182.671 104.356 182.569C103.872 181.524 104.147 180.159 103.41 179.267C102.649 180.179 102.036 181.204 101.594 182.305L98.754 181.425C98.6131 181.983 98.5883 182.564 98.6811 183.131C98.7738 183.699 98.9822 184.242 99.2933 184.726C98.7926 184.94 98.337 185.246 97.9505 185.629C97.7599 185.824 97.6264 186.068 97.5643 186.334C97.5023 186.6 97.514 186.877 97.5983 187.137C98.2563 187.302 98.935 187.368 99.6125 187.335C99.5057 188.586 99.5761 189.846 99.8216 191.077C99.8407 191.259 99.927 191.428 100.064 191.55C100.273 191.682 100.548 191.55 100.757 191.44C101.743 190.831 102.552 189.973 103.101 188.953L104.202 191.484C104.277 191.745 104.446 191.968 104.675 192.112C104.837 192.166 105.012 192.166 105.174 192.11C105.335 192.054 105.473 191.946 105.567 191.803C105.742 191.512 105.848 191.185 105.875 190.846L106.271 188.447C106.28 188.322 106.326 188.203 106.403 188.105C106.521 188.011 106.672 187.968 106.822 187.984C107.823 187.984 108.825 187.984 109.837 187.984C110.002 187.456 109.474 186.961 108.957 186.73C108.439 186.498 107.856 186.333 107.581 185.838C107.053 184.826 108.406 183.406 107.834 182.536C107.262 181.667 106.029 182.448 105.149 182.888Z" fill="white"/>
<path opacity="0.5" d="M33.9382 34.1941C33.8393 34.2568 33.7251 34.291 33.608 34.2932C33.3879 34.2932 33.2338 34.073 33.1458 33.8859C32.6615 32.7853 32.9367 31.4645 32.1992 30.584C31.4367 31.4899 30.8236 32.5117 30.3832 33.6108L27.5435 32.7303C27.4014 33.2881 27.3759 33.8693 27.4687 34.4375C27.5615 35.0056 27.7706 35.5485 28.0829 36.0321C27.584 36.2534 27.1291 36.5628 26.7401 36.9457C26.5485 37.1403 26.4142 37.3841 26.3521 37.6501C26.29 37.9161 26.3023 38.1941 26.3879 38.4535C27.0478 38.607 27.7249 38.6735 28.4021 38.6516C28.2946 39.899 28.365 41.1552 28.6112 42.3827C28.619 42.4763 28.6454 42.5673 28.6889 42.6504C28.7324 42.7336 28.792 42.8072 28.8643 42.867C29.0734 42.9991 29.3376 42.867 29.5577 42.7459C30.5384 42.1385 31.3429 41.2846 31.891 40.2695L32.9917 42.79C33.0707 43.0512 33.238 43.2768 33.4649 43.4283C33.6267 43.483 33.802 43.4824 33.9634 43.4266C34.1247 43.3709 34.263 43.263 34.3564 43.1202C34.5317 42.829 34.6372 42.5013 34.6646 42.1626L35.0608 39.7522C35.0693 39.6278 35.1154 39.5088 35.1929 39.4111C35.3157 39.3268 35.4623 39.2844 35.6111 39.29C36.6127 39.29 37.6253 39.29 38.6268 39.29C38.7919 38.7507 38.2637 38.2554 37.7464 38.0353C37.2291 37.8152 36.6457 37.6391 36.3706 37.1438C35.8423 36.1202 37.207 34.7114 36.6237 33.8419C36.0404 32.9724 34.8187 33.7648 33.9382 34.1941Z" fill="white"/>
<path opacity="0.5" d="M71.8327 117.985C71.7351 118.05 71.62 118.085 71.5025 118.084C71.2823 118.084 71.1393 117.864 71.0512 117.676C70.567 116.576 70.8421 115.255 70.0937 114.375C69.3406 115.289 68.7318 116.314 68.2887 117.412L65.4381 116.532C65.3017 117.09 65.2792 117.67 65.3719 118.238C65.4645 118.805 65.6704 119.348 65.9774 119.834C65.4809 120.053 65.0294 120.363 64.6456 120.747C64.454 120.942 64.3197 121.186 64.2576 121.452C64.1955 121.718 64.2078 121.996 64.2934 122.255C64.9496 122.408 65.623 122.475 66.2965 122.453C66.1927 123.701 66.2668 124.957 66.5167 126.184C66.5225 126.277 66.5469 126.368 66.5885 126.451C66.6301 126.534 66.688 126.608 66.7588 126.669C66.9679 126.801 67.2431 126.669 67.4522 126.547C68.4465 125.926 69.259 125.053 69.8075 124.016L70.9082 126.536C70.9809 126.801 71.1497 127.028 71.3814 127.175C71.5414 127.231 71.7156 127.231 71.8756 127.175C72.0355 127.119 72.1717 127.01 72.2619 126.867C72.441 126.576 72.5503 126.249 72.5811 125.909L72.9773 123.499C72.9812 123.373 73.0278 123.253 73.1094 123.158C73.2307 123.07 73.3785 123.028 73.5276 123.036C74.5292 123.036 75.5308 123.036 76.5323 123.036C76.7084 122.497 76.1802 122.002 75.6629 121.782C75.1456 121.562 74.5622 121.386 74.2871 120.89C73.7588 119.867 75.1125 118.458 74.5402 117.588C73.9679 116.719 72.7132 117.555 71.8327 117.985Z" fill="white"/>
<path opacity="0.5" d="M44.3281 85.3181C44.2305 85.3836 44.1155 85.4182 43.9979 85.4172C43.7778 85.4172 43.6348 85.2081 43.5467 85.0099C43.0624 83.9093 43.3376 82.5886 42.5892 81.7081C41.8324 82.616 41.2232 83.6374 40.7841 84.7348L37.9335 83.8543C37.7971 84.4127 37.7747 84.9928 37.8673 85.5601C37.96 86.1274 38.1659 86.6702 38.4728 87.1562C37.9739 87.3774 37.519 87.6868 37.13 88.0697C36.9424 88.2668 36.8116 88.5111 36.7515 88.7766C36.6914 89.042 36.7043 89.3188 36.7889 89.5775C37.444 89.7369 38.1183 89.8036 38.792 89.7756C38.6892 91.0272 38.7633 92.2869 39.0121 93.5178C39.0188 93.6089 39.0436 93.6977 39.0852 93.779C39.1268 93.8603 39.1843 93.9324 39.2542 93.991C39.4634 94.1231 39.7385 93.991 39.9476 93.87C40.9411 93.2458 41.7503 92.3682 42.292 91.3275L43.3926 93.848C43.4626 94.1105 43.6272 94.3379 43.8548 94.4863C44.0166 94.541 44.1919 94.5404 44.3533 94.4846C44.5147 94.4288 44.6529 94.321 44.7463 94.1781C44.9255 93.888 45.0348 93.5602 45.0656 93.2206L45.4508 90.8102C45.4578 90.6888 45.5042 90.5729 45.5828 90.48C45.7042 90.3844 45.8586 90.3409 46.0121 90.359C47.01 90.359 48.0115 90.359 49.0168 90.359C49.1929 89.8197 48.6536 89.3244 48.1473 89.1043C47.641 88.8841 47.0467 88.708 46.7605 88.2128C46.2432 87.1892 47.597 85.7804 47.0246 84.9109C46.4523 84.0414 45.2086 84.8889 44.3281 85.3181Z" fill="white"/>
<path opacity="0.5" d="M162.469 93.0114C162.372 93.077 162.257 93.1115 162.139 93.1105C161.919 93.1105 161.776 92.8904 161.688 92.7033C161.203 91.6026 161.479 90.2819 160.73 89.4014C159.986 90.3121 159.388 91.3332 158.958 92.4281L156.108 91.5476C155.971 92.106 155.949 92.6861 156.041 93.2534C156.134 93.8207 156.34 94.3635 156.647 94.8495C156.148 95.0707 155.693 95.3802 155.304 95.763C155.116 95.9601 154.986 96.2044 154.926 96.4699C154.865 96.7353 154.878 97.0121 154.963 97.2709C155.619 97.4242 156.293 97.4908 156.966 97.469C156.862 98.7168 156.936 99.9731 157.186 101.2C157.192 101.293 157.216 101.384 157.258 101.467C157.3 101.55 157.358 101.624 157.428 101.684C157.637 101.816 157.913 101.684 158.122 101.563C159.105 100.955 159.913 100.102 160.466 99.0869L161.567 101.607C161.639 101.872 161.808 102.099 162.04 102.246C162.2 102.3 162.374 102.299 162.533 102.243C162.693 102.187 162.829 102.08 162.92 101.938C163.1 101.647 163.209 101.32 163.24 100.98L163.636 98.5696C163.64 98.4462 163.683 98.3271 163.757 98.2284C163.883 98.1426 164.034 98.1001 164.186 98.1073C165.188 98.1073 166.189 98.1073 167.191 98.1073C167.367 97.568 166.828 97.0728 166.321 96.8526C165.815 96.6325 165.221 96.4564 164.935 95.9611C164.417 94.9375 165.771 93.5287 165.199 92.6593C164.626 91.7898 163.361 92.5822 162.469 93.0114Z" fill="white"/>
<path opacity="0.2" d="M105.149 86.5838C105.046 86.6479 104.928 86.6822 104.807 86.6829C104.598 86.6829 104.444 86.4627 104.356 86.2756C103.872 85.175 104.147 83.8543 103.41 82.9738C102.647 83.8796 102.034 84.9014 101.594 86.0005L98.7539 85.12C98.6117 85.6778 98.5862 86.259 98.679 86.8272C98.7718 87.3953 98.9809 87.9382 99.2932 88.4218C98.7943 88.6431 98.3395 88.9525 97.9505 89.3354C97.7588 89.53 97.6245 89.7738 97.5624 90.0398C97.5003 90.3058 97.5127 90.5838 97.5983 90.8432C98.258 90.9975 98.9353 91.0641 99.6124 91.0413C99.505 92.2887 99.5754 93.5449 99.8216 94.7724C99.8379 94.9587 99.9245 95.1318 100.064 95.2567C100.273 95.3888 100.548 95.2567 100.757 95.1357C101.742 94.5297 102.55 93.6757 103.101 92.6593L104.202 95.1797C104.281 95.4409 104.448 95.6665 104.675 95.818C104.837 95.8727 105.012 95.8721 105.174 95.8163C105.335 95.7605 105.473 95.6528 105.567 95.5099C105.742 95.2187 105.848 94.891 105.875 94.5523L106.271 92.142C106.28 92.0175 106.326 91.8985 106.403 91.8007C106.526 91.7165 106.673 91.6741 106.822 91.6797C107.823 91.6797 108.825 91.6797 109.837 91.6797C110.002 91.1404 109.474 90.6451 108.957 90.425C108.439 90.2048 107.856 90.0287 107.581 89.5335C107.053 88.5099 108.406 87.1011 107.834 86.2316C107.262 85.3621 106.029 86.1546 105.149 86.5838Z" fill="white"/>
<path opacity="0.3" d="M87.1534 94.4093C87.0559 94.4748 86.9408 94.5093 86.8233 94.5083C86.6031 94.5083 86.46 94.2882 86.372 94.1011C85.8877 93.0005 86.1628 91.6797 85.4144 90.7992C84.6553 91.7055 84.046 92.7273 83.6094 93.8259L80.7588 92.9454C80.6225 93.5038 80.5999 94.0839 80.6926 94.6512C80.7852 95.2185 80.9912 95.7613 81.2981 96.2473C80.7992 96.4685 80.3443 96.778 79.9553 97.1608C79.7676 97.358 79.6368 97.6022 79.5768 97.8677C79.5167 98.1332 79.5296 98.41 79.6141 98.6687C80.2703 98.822 80.9438 98.8887 81.6173 98.8668C81.5134 100.115 81.5875 101.371 81.8374 102.598C81.8432 102.691 81.8677 102.781 81.9093 102.865C81.9509 102.948 82.0088 103.022 82.0796 103.082C82.2887 103.214 82.5638 103.082 82.773 102.961C83.7561 102.353 84.564 101.5 85.1172 100.485L86.2179 103.005C86.2906 103.269 86.4594 103.497 86.6912 103.644C86.8513 103.697 87.0249 103.696 87.1843 103.641C87.3438 103.585 87.4801 103.477 87.5717 103.335C87.7508 103.045 87.86 102.717 87.8908 102.378L88.287 99.9674C88.2916 99.844 88.3339 99.7249 88.4082 99.6262C88.5331 99.5385 88.6856 99.4994 88.8373 99.5162C89.8426 99.5162 90.8442 99.5162 91.8421 99.5162C92.0182 98.9769 91.4788 98.4816 90.9726 98.2615C90.4663 98.0413 89.8719 97.8652 89.5858 97.37C89.0685 96.3464 90.4223 94.9376 89.85 94.0681C89.2776 93.1986 88.0339 93.98 87.1534 94.4093Z" fill="white"/>
<path opacity="0.2" d="M70.3909 47.0494C70.2886 47.1135 70.1704 47.1478 70.0497 47.1484C69.8405 47.1484 69.6865 46.9283 69.5984 46.7412C69.1141 45.6406 69.3893 44.3198 68.6519 43.4393C67.8916 44.3508 67.2787 45.3758 66.8358 46.477L63.9962 45.5965C63.854 46.1544 63.8286 46.7356 63.9214 47.3038C64.0142 47.8719 64.2233 48.4148 64.5356 48.8984C64.0367 49.1196 63.5817 49.4291 63.1928 49.8119C63.0011 50.0066 62.8669 50.2503 62.8048 50.5164C62.7426 50.7824 62.755 51.0604 62.8406 51.3198C63.5005 51.4732 64.1776 51.5398 64.8547 51.5179C64.7473 52.7652 64.8177 54.0215 65.0639 55.249C65.0802 55.4353 65.1668 55.6084 65.306 55.7333C65.5151 55.8654 65.7902 55.7333 65.9994 55.6122C66.9841 55.0062 67.7925 54.1523 68.3437 53.1358L69.4443 55.6563C69.5234 55.9174 69.6906 56.1431 69.9176 56.2946C70.0793 56.3493 70.2547 56.3487 70.416 56.2929C70.5774 56.2371 70.7156 56.1293 70.8091 55.9864C70.9843 55.6953 71.0898 55.3676 71.1173 55.0289L71.5135 52.6185C71.522 52.4941 71.568 52.3751 71.6456 52.2773C71.7684 52.1931 71.915 52.1507 72.0638 52.1563C73.0654 52.1563 74.0779 52.1563 75.0795 52.1563C75.2446 51.617 74.7163 51.1217 74.199 50.9016C73.6817 50.6814 73.0984 50.5053 72.8232 50.0101C72.2949 48.9865 73.6487 47.5777 73.0764 46.7082C72.504 45.8387 71.2714 46.6091 70.3909 47.0494Z" fill="white"/>
<path opacity="0.3" d="M103.421 108.849C103.318 108.914 103.2 108.948 103.079 108.949C102.87 108.949 102.716 108.739 102.628 108.541C102.144 107.441 102.419 106.12 101.682 105.239C100.921 106.147 100.309 107.168 99.8656 108.266L97.026 107.386C96.8838 107.943 96.8583 108.525 96.9511 109.093C97.0439 109.661 97.253 110.204 97.5653 110.687C97.0664 110.909 96.6115 111.218 96.2225 111.601C96.0309 111.796 95.8967 112.039 95.8345 112.305C95.7724 112.571 95.7848 112.849 95.8703 113.109C96.5293 113.268 97.2072 113.334 97.8845 113.307C97.778 114.558 97.8484 115.818 98.0936 117.049C98.1127 117.231 98.199 117.4 98.3357 117.522C98.5448 117.654 98.82 117.522 99.0401 117.401C100.021 116.794 100.825 115.94 101.373 114.925L102.474 117.445C102.553 117.707 102.72 117.932 102.947 118.084C103.109 118.138 103.284 118.138 103.446 118.082C103.607 118.026 103.745 117.918 103.839 117.776C104.014 117.484 104.12 117.157 104.147 116.818L104.543 114.408C104.55 114.286 104.597 114.17 104.675 114.077C104.793 113.984 104.944 113.94 105.094 113.956C106.095 113.956 107.108 113.956 108.109 113.956C108.274 113.417 107.746 112.922 107.229 112.702C106.711 112.482 106.128 112.305 105.853 111.81C105.325 110.787 106.678 109.378 106.106 108.508C105.534 107.639 104.301 108.42 103.421 108.849Z" fill="white"/>
</g>
</svg>
